<svg id="Capa_1" data-name="Capa 1" xmlns="http://www.w3.org/2000/svg" width="499.6" height="499.6" viewBox="0 0 499.6 499.6">
  <defs>
    <style>
      .cls-1 {
        fill: #71d7ff;
      }

      .cls-2 {
        fill: #fff;
      }
    </style>
  </defs>
  <g>
    <circle cx="249.8" cy="249.8" r="249.8"/>
    <circle class="cls-1" cx="249.8" cy="249.8" r="249.8"/>
  </g>
  <path class="cls-2" d="M384.5,144.8a43.8,43.8,0,0,1,17.9,3.8V103.8c-7.7-2.1-18.2-3.5-30.5-3.5-37.8,0-63.6,21.4-63.6,73.9v45.5H279.2V140h-50v19.3h-.4c-16.1-16.8-32.9-23.5-54.2-23.5-45.1,0-77,39.6-77,88.6s31.9,88.8,77.4,88.8c22,0,38.8-8.4,54.5-25.1h.4v23c0,32.6-15.1,49-42,49-24.1,0-36-9.4-40.2-31.1l-46.9,2.8c3.8,45.1,37.1,67.9,87.8,67.9,58.4,0,90.6-32.9,90.6-94.9V264.4h29.1V390.7H359V264.4h39.5V219.7H358.6V181.2C358.6,154.9,369.1,144.8,384.5,144.8ZM189.6,272.3c-25.1,0-40.9-19.9-40.9-47.2s16.8-46.2,41.3-46.2,41.6,19.9,41.6,46.5S214.5,272.3,189.6,272.3Z" transform="translate(-0.2 -0.2)"/>
</svg>
